<?xml version="1.0" encoding="UTF-8"?>
<svg xmlns="http://www.w3.org/2000/svg" viewBox="0 0 58 58">
	<defs>
		<style>
			.cls-1, .cls-2 {
				fill: none;
				stroke: #2a2a2a;
				stroke-linecap: round;
				stroke-linejoin: round;
			}

			.cls-2 {
				stroke-width: 2px;
			}
		</style>
	</defs>
	<path class="cls-1" d="M28.8,6.4l-.1-1.45c-.07-.57-.03-.97.1-1.2l.05-.05c.2-.2.25-1.1.15-2.7M28.8,6.4l-.05.65v2.2l.1,1.85-.05,1.75c-.07.6-.02,1.27.15,2l.15,1.9-.1,1.95-.05,2.15.05,2.05-.15,2.2c-.13.77-.1,1.45.1,2.05.2.6.22,1.22.05,1.85l1.95.15,1.9-.05,2.15-.2,1.95-.05,2.05-.15,2.1.05,1.85.1h1.85l2.05.25,1.9.15,2-.2,1.95-.1,1.65.25,2.45-.15M30.35,9.05l.45,2.2c.03.67.12,1.18.25,1.55l.15.4,1.75.5,1.75.55c.67.3,1.28.58,1.85.85l1.75,1,1.45,1.15,1.3,1.4,1.3,1.7,1.05,1.8.7,2,.25,1.6.55,1.25c.07.2.25.27.55.2l1.6.15,1.9.3M31.05,13.15l.15.05M31.05,44.9l1.8-.05,1.25-.6,1.95-.85,1.75-1.05c.5-.47,1.03-.85,1.6-1.15l1.65-1.05,1.2-1.45,1-1.75c.4-.63.62-1.28.65-1.95.03-.63.17-1.27.4-1.9l.6-2.05.6.05c.3-.17.73-.33,1.3-.5l2.15-.25M27.65,9.05c.1.8-.03,1.42-.4,1.85-.33.47-.38.92-.15,1.35s.2.72-.1.85M13.1,27l-.55.05h-1.55c-.63.07-1.28.27-1.95.6M13.1,27c-.2-.6-.22-1.25-.05-1.95.2-.67.48-1.32.85-1.95l1-1.85,1.1-1.6,1.15-1.3,1.35-1.35,1.8-1.45,1.75-1,1.7-.6,1.3-.2c.3.03.95-.18,1.95-.65M27.65,48.95l-.35-1.8-.15-1.55-.15-.7-1.9-.4-1.6-.45-1.75-1.05-1.6-1.25-1.7-1.15-1.75-1.3c-.57-.5-.95-1.1-1.15-1.8-.17-.7-.43-1.27-.8-1.7l-.9-1.6-.5-1.5-.25-1.65-.6.05-1.5-.15c-.63-.03-1.28-.23-1.95-.6M29,57c.1-1.07.05-1.83-.15-2.3-.17-.47-.22-1.05-.15-1.75l.05-1.9v-1.8l.1-2.15-.05-2.25c-.07-.73-.02-1.4.15-2,.17-.6.22-1.3.15-2.1l-.1-2.05-.05-1.85.05-1.95-.15-1.8c-.13-.57-.1-1.22.1-1.95.2-.73.22-1.45.05-2.15l-2.05.15-2.1-.05-1.85-.2-2.05-.05-1.95-.15-1.9.05-2.15.1h-2.15l-1.95.25-2.1.15-2-.2-2.05-.1-1.35.25-.1.05M30.35,48.95l.35-2,.3-1.2.05-.85"/>
	<path class="cls-2" d="M28.8,3.75c-.03-.93.03-1.85.2-2.75.23,1.13.62,2.3,1.15,3.5.57,1.23.75,2.27.55,3.1l-.35,1.45,4.05,1.2c1.1.33,2.33.85,3.7,1.55l3.05,1.75,2.3,2.4,2.5,3.35c.77,1.13,1.4,2.42,1.9,3.85l.9,3.2.2,1.3c.13-.07.4.05.8.35.4.33,1.45.53,3.15.6l4.1.4-.2.05-3.9.85-3.15.45h-.8c-.63,1.2-1.02,2.45-1.15,3.75-.1,1.33-.42,2.68-.95,4.05-.53,1.37-1.07,2.47-1.6,3.3-.53.87-1.47,1.85-2.8,2.95l-3.65,2.45-3.65,1.3-2.75.6-2.05.2c-.57-.13-.72.18-.45.95.3.77.27,1.8-.1,3.1l-.8,4-.5-4c-.1-1.3-.42-2.33-.95-3.1-.33-.53-.42-.85-.25-.95l-3.6-.4c-1.2-.27-2.35-.77-3.45-1.5l-3.6-1.95c-1.33-.57-2.43-1.37-3.3-2.4-.83-1.03-1.4-2.28-1.7-3.75-.27-1.47-.68-2.78-1.25-3.95-.57-1.17-.87-2.18-.9-3.05,0-.87-.15-1.4-.45-1.6.57-.2.38-.25-.55-.15l-3.2-.45-2.05-.5-2.25-.25,4.3-.55,3.2-.6.55-.2c.23-1.83.5-3.32.8-4.45.3-1.1.8-2.15,1.5-3.15l2.25-3.3c.83-1.23,1.72-2.2,2.65-2.9.97-.67,2.1-1.2,3.4-1.6,1.3-.37,2.52-1.02,3.65-1.95,1.13-.93,1.95-1.37,2.45-1.3l1.9.05.7-1.45.45-1.2M28.8,3.75l.05.75-.05,1.9M44.9,27c-1.4.37-2.8.35-4.2-.05-1.37-.37-2.67-.87-3.9-1.5-1.2-.63-2.13-.87-2.8-.7l-1,.25-1.15-4.7c-.2-.77-.25-1.73-.15-2.9.13-1.17-.08-2.58-.65-4.25M33,33l.35.35c.13-.43.02-.55-.35-.35M44.9,31.05l-4.25.75-3.55.8-2.55.75c-.53.17-.93.17-1.2,0l-.25.5c-.43.83-.78,1.97-1.05,3.4l-.75,3.55c-.23.9-.32,2.27-.25,4.1M27,13.1c-.23.9-.37,2.13-.4,3.7,0,1.57-.15,2.6-.45,3.1-.3.53-.68,2.23-1.15,5.1l-5.35.75-3.45.65-3.1.6M13.1,31.05l4.05,1.15,2.35.55,5.5.25c.63-.3.97-.02,1,.85.03.9.17,2.05.4,3.45.27,1.4.3,2.65.1,3.75-.17,1.1,0,2.38.5,3.85M27.3,48.95h.35"/>
</svg>