<?xml version="1.0" encoding="UTF-8"?>
<svg xmlns="http://www.w3.org/2000/svg" viewBox="0 0 20 20">
	<defs>
		<style>
			.cls-1 {
				fill: #465556;
				stroke-width: 0px;
			}
		</style>
	</defs>
	<path class="cls-1" d="M20,5.16c0-.21,0-.32-.21-.53L15.34.21c-.11-.11-.21-.21-.42-.21s-.32.11-.42.21l-1.8,1.68c-.11.11-.21.32-.21.53s0,.32.21.42l.63.63-3.28,3.26-3.39-3.26.63-.63c.11-.11.21-.32.21-.42s-.11-.32-.21-.53L5.61.21c-.11-.11-.21-.21-.42-.21s-.32.11-.53.21L.21,4.63c-.11.11-.21.32-.21.53s.11.32.21.42l1.8,1.79c.11.11.32.21.42.21.21,0,.32-.11.42-.21l.63-.63,3.39,3.26-3.39,3.37-.63-.63c-.11-.11-.32-.21-.42-.21-.21,0-.32.11-.42.21l-1.8,1.68c-.11.11-.21.32-.21.53s.11.32.21.42l4.44,4.42c.11.11.32.21.42.21.21,0,.42-.11.53-.21l1.69-1.68c.11-.11.21-.32.21-.53s-.11-.32-.21-.53l-.63-.53,3.39-3.37,3.28,3.26-.63.63c-.11.11-.21.32-.21.53s.11.32.21.53l1.8,1.68c.11.11.32.21.42.21.21,0,.32-.11.42-.21l2.33-2.32h.11l.21-.53h.32l1.48-1.58c.11-.11.21-.32.21-.42s-.11-.32-.21-.53l-1.69-1.68c-.11-.11-.32-.21-.53-.21-.11,0-.32.11-.42.21l-.63.63-3.28-3.37,3.28-3.26.63.53c.11.11.32.21.42.21.21,0,.42-.11.53-.21l1.69-1.79c.21,0,.21-.11.21-.32"/>
</svg>